<?xml version="1.0" encoding="UTF-8"?>
<svg id="Layer_1" xmlns="http://www.w3.org/2000/svg" version="1.1" viewBox="0 0 225 132">
  <!-- Generator: Adobe Illustrator 30.3.0, SVG Export Plug-In . SVG Version: 2.1.3 Build 182)  -->
  <defs>
    <style>
      .st0, .st1 {
        isolation: isolate;
      }

      .st1 {
        font-family: Avenir-Medium, Avenir;
        font-size: 20.72px;
        font-weight: 500;
      }
    </style>
  </defs>
  <path d="M32.25,98.44v-52.87c0-8.26,6.46-15.24,14.71-15.48,8.26-.25,15.63,6.65,15.63,15.16v8.24c0,2.36,1.78,4.42,4.13,4.58,2.58.18,4.74-1.87,4.74-4.42,0-6.98,5.81-12.62,12.85-12.36s11.89,5.97,11.89,12.66v8.1c0,2.45,1.98,4.43,4.43,4.43h11.25c2.18,0,4.06,1.67,4.14,3.85s-1.74,4.09-3.97,4.09h-11.42c-6.83,0-12.37-5.54-12.37-12.37v-8.24c0-2.36-1.78-4.42-4.13-4.58-2.58-.18-4.74,1.87-4.74,4.42,0,6.98-5.81,12.62-12.85,12.36s-11.89-5.97-11.89-12.66v-7.89c0-3.89-2.98-7.24-6.86-7.43-4.15-.21-7.59,3.11-7.59,7.22v53.19c0,2.19-1.78,3.97-3.97,3.97h0c-2.19,0-3.97-1.78-3.97-3.97h-.02Z"/>
  <path d="M43.56,45.83c0-2.27,1.84-4.11,4.11-4.11s4.11,1.84,4.11,4.11-1.84,4.11-4.11,4.11-4.11-1.84-4.11-4.11Z"/>
  <g class="st0">
    <g class="st0">
      <g class="st0">
        <text class="st1" transform="translate(44.85 95.11)"><tspan x="0" y="0">pocket midi</tspan></text>
      </g>
    </g>
  </g>
</svg>