<?xml version="1.0" encoding="UTF-8"?>
<svg xmlns="http://www.w3.org/2000/svg" viewBox="0 0 257.78 257.78">
  <defs>
    <style>
      .cls-1 {
        fill: #fff;
      }
    </style>
  </defs>
  <g id="Layer_3" data-name="Layer 3">
    <rect width="257.78" height="257.78"/>
  </g>
  <g id="Layer_2" data-name="Layer 2">
    <g>
      <path class="cls-1" d="M11.48,221.03V69.91c0-24.46,20.02-44.9,44.47-44.48,23.75.41,42.95,19.86,42.95,43.71v23.84c0,6.87,5.27,12.79,12.13,13.13,7.33.36,13.42-5.5,13.42-12.76,0-19.94,16.46-36.11,36.5-35.63s34.79,16.84,34.79,36.3v23.54c0,7.05,5.72,12.77,12.77,12.77h27.56c6.3,0,11.7,4.93,11.81,11.22.12,6.41-5.05,11.65-11.43,11.65h-27.94c-19.69,0-35.64-15.96-35.64-35.64v-23.84c0-6.87-5.27-12.79-12.13-13.13-7.33-.36-13.42,5.5-13.42,12.76,0,19.94-16.46,36.11-36.5,35.63s-34.79-16.84-34.79-36.3v-23.03c0-11.29-8.76-20.91-20.04-21.34-11.86-.45-21.64,9.07-21.64,20.83v151.9c0,6.32-5.12,11.44-11.44,11.44h0c-6.32,0-11.44-5.12-11.44-11.44Z"/>
      <path class="cls-1" d="M44.05,70.8c0-6.53,5.31-11.84,11.84-11.84s11.84,5.31,11.84,11.84-5.31,11.84-11.84,11.84-11.84-5.31-11.84-11.84Z"/>
    </g>
  </g>
</svg>